<?xml version="1.0" encoding="utf-8"?>
<!-- Generator: Adobe Illustrator 22.1.0, SVG Export Plug-In . SVG Version: 6.00 Build 0)  -->
<svg version="1.1" id="Layer_1" xmlns="http://www.w3.org/2000/svg" xmlns:xlink="http://www.w3.org/1999/xlink" x="0px" y="0px" viewBox="0 0 144.8 68.2" style="enable-background:new 0 0 144.8 68.2;" xml:space="preserve">
  <style type="text/css">
  .st0 {
    clip-path: url(#SVGID_2_);
    fill: #49d717;
  }

  </style>
  <g>
    <defs>
      <rect id="SVGID_1_" y="0" width="144.8" height="68.2" />
    </defs>
    <clipPath id="SVGID_2_">
      <use xlink:href="#SVGID_1_" style="overflow:visible;" />
    </clipPath>
    <path class="st0" d="M37.7,7.1c-7,1.5-12.1,3.4-18.1,9.2c-5.9,5.8-9.3,14.6-9.3,22.1c0,18.4,14,27.1,14,27.1
		c0.2,0.1,0.2,0.4,0.1,0.5c-0.1,0.2-0.3,0.2-0.5,0.1c0,0-15.6-8.3-15.6-27.8c0-9.5,4.2-17.5,9.7-23c7.7-7.7,17.3-9.1,19.7-9.1
		c0.2,0,0.4,0.2,0.4,0.4C38,6.9,37.9,7,37.7,7.1 M12.6,17.1c-0.2-0.2-0.6-0.2-0.7,0.1C10.1,19.4,4,26.8,4,38.8
		c0,14.7,9.5,23.3,9.8,23.6c0.2,0.2,0.5,0.2,0.7,0c0.2-0.2,0.3-0.6,0.1-0.8C13.3,60.5,5.7,51.7,5.7,39c0-12.4,6.1-19.6,7-21.1
		C12.9,17.6,12.8,17.3,12.6,17.1 M1.6,33.8c0-0.2-0.2-0.5-0.5-0.5c-0.2,0-0.4,0.2-0.5,0.4c0,0-0.7,2.7-0.7,6.3c0,10,4.5,16.4,5,17
		c0.1,0.2,0.4,0.3,0.6,0.2c0.2-0.1,0.3-0.4,0.2-0.6c-0.1-0.3-4.4-8-4.4-18.1C1.4,35.8,1.6,34.1,1.6,33.8 M67,52.4
		c-5.1,8.9-14.3,13.9-24,13.9c-13.5,0-27.6-10.7-27.6-27.8C15.4,23.7,27.8,11,43.1,11c1,0,3.5,0.2,3.5,0.2c-0.1-1-0.3-2-0.3-3
		c0-4.3,3.1-6.4,7.1-6.4c3.1,0,5.9,1.4,6.9,1.8c7,3.3,8.5,7.8,8.5,9.8c0,4.2-3.4,5.4-5.5,6.5c0,0,0,0,0,0c0.2,0.2,1.7,1.5,3.6,4.7
		H69c-1.2-2.3-2.7-4.3-2.8-4.3c2.4-1.2,4.4-3.7,4.4-6.9c0-2.9-2-8.1-9.5-11.6c-1.2-0.5-4.2-2-7.7-2c-5.1,0-8.9,3-8.9,8.2
		c0,0.5,0,1,0,1c-0.5,0-1,0-1.5,0c-18.2,0-29.5,15.4-29.5,29.2c0,16,12.6,29.8,29.4,29.8c11,0,21-6,26.1-15.8H67z M72.4,24.8h1.4
		c-0.1-0.2-0.4-0.8-0.4-1c-0.1-0.3-0.4-0.9-0.4-1.2c0-0.4,1.7-2.1,1.7-5.9c0-1.4-0.4-2.7-0.4-2.9c0-0.2-0.2-0.3-0.4-0.3
		c-0.2,0-0.4,0.2-0.4,0.4c0,0.1,0.2,0.8,0.2,1.7c0,1.9-0.5,3.4-1,4.3c-0.9,1.7-1.5,1.8-1.5,2.4c0,0.2,0,0.3,0.1,0.5
		C71.3,22.9,71.9,23.8,72.4,24.8 M73.1,52.4c-2.8,5.9-6.6,9.5-8.1,10.7c-0.1,0.1-0.2,0.3,0,0.5c0.1,0.2,0.4,0.2,0.5,0.1
		c1.5-1.2,5.8-4.8,8.9-11.3H73.1z" />
    <path class="st0" d="M39.7,48.9v2.8c-2.8,0.2-9.6,0.7-11.2,0.9v-2.9l2.7-1l0-20.4l-1.9-0.1l-2,5l-2.9,0l0-9.1
		c7.3,0.8,12,1.1,18.7,1.6l0,8.6l-2.9,0l-2.1-5.6l-1.3-0.2l0,19.6L39.7,48.9z M96.2,47.4c3.3,0,3.2-2.2,3.2-8.6
		c0-6.7-0.1-8.8-3.4-8.8c-3.3,0-3.2,2.2-3.2,8.6C92.9,45.1,92.9,47.4,96.2,47.4 M105.1,38.5c0,8.2-0.3,12.7-8.9,12.2
		c-8.2-0.5-8.8-3.6-8.9-12c0-8.2,0.7-12.2,8.9-12.2C104,26.5,105.1,28.8,105.1,38.5 M64,44l0-13.7l2.8-0.6l0-3.1
		c-0.7,0-9.2-0.3-10.2-0.3v2.8l2.2,0.9l0,14.1c0,2.6-1.1,3.5-3.2,3.5c-2.2,0-3.3-1-3.3-3.4l0-14.2l2.2-0.9l0-2.8
		c-2.1-0.1-6.7-0.3-9.7-0.5l0,2.8l2.2,1l0,14.9c0,4.9,2.7,6.7,8.6,6.7C61.4,51.1,64,48.8,64,44 M76.4,47.3c2.6,0,4.3-0.5,4.3-3.4
		c0-2.8-1.2-3.7-3.8-3.7l-1.6,0l-0.1,7.1L76.4,47.3 M75.3,36.6l1.6,0c2.1,0,3.3-0.5,3.3-3.1c0-2.8-1-3.3-2.9-3.5L75.3,30L75.3,36.6z
		 M81.1,37.8c0,0,5.2,0.8,5.1,5.9c0,4.7-2.5,6.8-9.4,6.7c0,0-5.4,0-8.9,0l0-2.5l2.2-0.8l0.2-16.9l-2.1-0.7l0-2.9l9.4,0.3
		c4.7,0,7.8,1.3,7.7,6.1C85.4,37.6,81.1,37.8,81.1,37.8 M114.9,37.4c2.7,0,3.8-1.2,3.8-4.4c0-2.8-1.4-3.4-3.1-3.3
		c-0.7,0-1.9,0.1-2.2,0.2v7.5L114.9,37.4 M144.8,52.3c0,0-3.1,0.6-8.5,0.3c-8.7-0.5-9.5-4.7-9.5-13.9c0-9.7,1.3-13.5,8.5-14
		c2.9-0.2,4.6,0.8,4.6,0.8l0.4-1l3.8-0.4l0,9.9l-3.7,0.1l-1.9-5.1c0,0-0.5-0.4-2.5-0.3c-3.5,0.2-3.5,2.7-3.5,9.7
		c0,7.5,0.3,10.1,3.9,10.3c1.8,0.1,2.5-0.4,2.5-0.4l0-6.3l-2.6-1l0-3l8.4,0L144.8,52.3z M126.7,48.5l0,3.1c-2.1-0.1-5.3-0.3-6.7-0.4
		l-4.3-9.9l-2.3,0l0,6l2.3,0.9l0,2.8c-2.2-0.1-6.4-0.3-10.1-0.4l0-2.8l2.4-0.8l0-16.7l-2.3-1.1l0-2.8l10.9-0.4c4.2-0.2,8,1.1,8,6.7
		c0,6-3.8,7-3.8,7l3.5,7.8L126.7,48.5z" />
  </g>
</svg>
